<svg version="1.1" viewBox="0.0 0.0 960.0 720.0" fill="none" stroke="none" stroke-linecap="square" stroke-miterlimit="10" xmlns:xlink="http://www.w3.org/1999/xlink" xmlns="http://www.w3.org/2000/svg"><clipPath id="p.0"><path d="m0 0l960.0 0l0 720.0l-960.0 0l0 -720.0z" clip-rule="nonzero"/></clipPath><g clip-path="url(#p.0)"><path fill="#000000" fill-opacity="0.0" d="m0 0l960.0 0l0 720.0l-960.0 0z" fill-rule="evenodd"/><path fill="#ffb4bc" d="m174.69704 580.55164c-58.65058 -138.18195 -17.177551 -298.52936 101.11604 -390.94556c118.29358 -92.416214 283.9113 -93.85731 403.79514 -3.5135498c119.88385 90.343765 164.14087 249.9452 107.90375 389.12677z" fill-rule="evenodd"/><path fill="#ffb4bc" d="m341.9292 397.19455l0 0c-76.254425 0 -138.07086 -61.03073 -138.07086 -136.31598q0 -68.15799 0 -136.31598q69.03543 0 138.07086 0l0 0c76.254425 0 138.07086 61.03074 138.07086 136.31598l0 0c0 75.28525 -61.816437 136.31598 -138.07086 136.31598z" fill-rule="evenodd"/><path fill="#ffb4bc" d="m618.0709 397.19455l0 0c76.254395 0 138.07086 -61.03073 138.07086 -136.31598q0 -68.15799 0 -136.31598q-69.03546 0 -138.07086 0l0 0c-76.254456 0 -138.07086 61.03074 -138.07086 136.31598l0 0c0 75.28525 61.816406 136.31598 138.07086 136.31598z" fill-rule="evenodd"/><path fill="#e6a1a8" d="m234.59254 145.18488l101.03935 0l-101.03935 101.03937z" fill-rule="evenodd"/><path fill="#e6a1a8" d="m731.55475 145.18488l-101.03937 0l101.03937 101.03937z" fill-rule="evenodd"/><path fill="#ffffff" d="m244.01917 393.1506l0 0l0 0c1.2383423 -4.6043396 4.255707 -8.530579 8.388275 -10.915039c4.1325684 -2.38443 9.04184 -3.0317383 13.647827 -1.7994995l47.494537 12.706238c9.591461 2.5660095 15.276398 12.418823 12.697662 22.006897l0 0l0 0c-2.5787354 9.588043 -12.444641 15.280518 -22.036102 12.714508l-47.494537 -12.706238l0 0c-9.591461 -2.5660095 -15.276398 -12.418793 -12.697662 -22.006866z" fill-rule="evenodd"/><path fill="#ffffff" d="m196.29233 455.39746l0 0l0 0c-0.00831604 -4.770569 1.8788147 -9.345764 5.2462463 -12.719055c3.3674316 -3.373291 7.9393005 -5.268402 12.709885 -5.268402l98.58617 0c9.934204 0 18.001495 8.053253 18.018799 17.987457l0 0l0 0c0.017303467 9.934174 -8.021912 17.987427 -17.956116 17.987427l-98.58618 0l0 0c-9.934204 0 -18.001495 -8.053253 -18.018799 -17.987427z" fill-rule="evenodd"/><path fill="#ffffff" d="m243.98598 519.3892l0 0l0 0c-1.2383575 -4.604309 -0.5962677 -9.5095825 1.7850037 -13.636688c2.3812714 -4.127075 6.306671 -7.137909 10.912674 -8.370148l47.494537 -12.706238c9.591461 -2.5660095 19.457367 3.1264648 22.036102 12.714508l0 0l0 0c2.5787354 9.588074 -3.1062317 19.440887 -12.697693 22.006866l-47.494537 12.706238l0 0c-9.591461 2.56604 -19.457352 -3.1264648 -22.036087 -12.714539z" fill-rule="evenodd"/><path fill="#ffffff" d="m717.42017 393.1506l0 0l0 0c-1.2384033 -4.6043396 -4.2557373 -8.530579 -8.388306 -10.915039c-4.1325684 -2.38443 -9.041809 -3.0317383 -13.647827 -1.7994995l-47.494507 12.706238c-9.591492 2.5660095 -15.276428 12.418823 -12.697693 22.006897l0 0l0 0c2.5787354 9.588043 12.444641 15.280518 22.036072 12.714508l47.494568 -12.706238l0 0c9.591492 -2.5660095 15.276428 -12.418793 12.697693 -22.006866z" fill-rule="evenodd"/><path fill="#ffffff" d="m765.147 455.39746l0 0l0 0c0.008300781 -4.770569 -1.8787842 -9.345764 -5.246216 -12.719055c-3.3674316 -3.373291 -7.939331 -5.268402 -12.7099 -5.268402l-98.58618 0c-9.934204 0 -18.001526 8.053253 -18.018799 17.987457l0 0l0 0c-0.017333984 9.934174 8.021912 17.987427 17.956116 17.987427l98.58618 0l0 0c9.934204 0 18.001526 -8.053253 18.018799 -17.987427z" fill-rule="evenodd"/><path fill="#ffffff" d="m717.4533 519.3892l0 0l0 0c1.2384033 -4.604309 0.5963135 -9.5095825 -1.7849731 -13.636688c-2.3812866 -4.127075 -6.3067017 -7.137909 -10.912659 -8.370148l-47.494568 -12.706238c-9.591431 -2.5660095 -19.457336 3.1264648 -22.036072 12.714508l0 0l0 0c-2.5787354 9.588074 3.1062012 19.440887 12.697632 22.006866l47.494568 12.706238l0 0c9.591492 2.56604 19.457336 -3.1264648 22.036072 -12.714539z" fill-rule="evenodd"/></g></svg>